<?xml version="1.0" encoding="UTF-8" standalone="no"?>
<svg
   xmlns:dc="http://purl.org/dc/elements/1.1/"
   xmlns:cc="http://creativecommons.org/ns#"
   xmlns:rdf="http://www.w3.org/1999/02/22-rdf-syntax-ns#"
   xmlns:svg="http://www.w3.org/2000/svg"
   xmlns="http://www.w3.org/2000/svg"
   xmlns:sodipodi="http://sodipodi.sourceforge.net/DTD/sodipodi-0.dtd"
   xmlns:inkscape="http://www.inkscape.org/namespaces/inkscape"
   version="1.1"
   id="Level_1"
   x="0px"
   y="0px"
   width="1024px"
   height="768px"
   viewBox="0 0 1024 768"
   enable-background="new 0 0 1024 768"
   xml:space="preserve"
   sodipodi:docname="opw_palette_one.svg"
   inkscape:version="0.92.3 (2405546, 2018-03-11)"><metadata
   id="metadata46"><rdf:RDF><cc:Work
       rdf:about=""><dc:format>image/svg+xml</dc:format><dc:type
         rdf:resource="http://purl.org/dc/dcmitype/StillImage" /><dc:title></dc:title></cc:Work></rdf:RDF></metadata><defs
   id="defs44" /><sodipodi:namedview
   pagecolor="#ffffff"
   bordercolor="#666666"
   borderopacity="1"
   objecttolerance="10"
   gridtolerance="10"
   guidetolerance="10"
   inkscape:pageopacity="0"
   inkscape:pageshadow="2"
   inkscape:window-width="1920"
   inkscape:window-height="1046"
   id="namedview42"
   showgrid="false"
   inkscape:zoom="0.75774594"
   inkscape:cx="647.81115"
   inkscape:cy="344.92343"
   inkscape:window-x="-11"
   inkscape:window-y="-11"
   inkscape:window-maximized="1"
   inkscape:current-layer="Level_1"
   inkscape:snap-global="false" />
  
  
  
  
  
  
  <rect
   ry="2.5773773"
   style="fill:#dd1c1a;fill-opacity:1;stroke:none;stroke-width:0.66297716;stroke-miterlimit:4;stroke-dasharray:none;stroke-opacity:1"
   id="rect5297"
   width="43.567368"
   height="40.482845"
   x="267.67047"
   y="15.575791" /><rect
   y="15.575791"
   x="218.55374"
   height="40.482845"
   width="43.567368"
   id="rect5307"
   style="fill:#f0c808;fill-opacity:1;stroke:none;stroke-width:0.66297716;stroke-miterlimit:4;stroke-dasharray:none;stroke-opacity:1"
   ry="2.5773773" /><rect
   ry="2.5773773"
   style="fill:#021e26;fill-opacity:1;stroke:none;stroke-width:0.66297716;stroke-miterlimit:4;stroke-dasharray:none;stroke-opacity:1"
   id="rect5317"
   width="43.567368"
   height="40.482845"
   x="71.203339"
   y="15.575791" /><rect
   ry="2.5773773"
   style="fill:#086788;fill-opacity:1;stroke:none;stroke-width:0.66297716;stroke-miterlimit:4;stroke-dasharray:none;stroke-opacity:1"
   id="rect5323"
   width="43.567368"
   height="40.482845"
   x="120.32016"
   y="15.575776" /><rect
   ry="2.5773773"
   style="fill:#07a0c3;fill-opacity:1;stroke:none;stroke-width:0.66297716;stroke-miterlimit:4;stroke-dasharray:none;stroke-opacity:1"
   id="rect5333"
   width="43.567368"
   height="40.482845"
   x="169.43692"
   y="15.575791" /><rect
   y="63.701359"
   x="267.67047"
   height="40.482845"
   width="43.567368"
   id="rect5339"
   style="fill:#b61add;fill-opacity:1;stroke:none;stroke-width:0.66297716;stroke-miterlimit:4;stroke-dasharray:none;stroke-opacity:1"
   ry="2.5773773" /><rect
   ry="2.5773773"
   style="fill:#f09308;fill-opacity:1;stroke:none;stroke-width:0.66297716;stroke-miterlimit:4;stroke-dasharray:none;stroke-opacity:1"
   id="rect5349"
   width="43.567368"
   height="40.482845"
   x="218.55374"
   y="63.701359" /><rect
   y="63.701359"
   x="169.43692"
   height="40.482845"
   width="43.567368"
   id="rect5359"
   style="fill:#19c307;fill-opacity:1;stroke:none;stroke-width:0.66297716;stroke-miterlimit:4;stroke-dasharray:none;stroke-opacity:1"
   ry="2.5773773" /><rect
   y="63.701359"
   x="120.32016"
   height="40.482845"
   width="43.567368"
   id="rect5365"
   style="fill:#088810;fill-opacity:1;stroke:none;stroke-width:0.66297716;stroke-miterlimit:4;stroke-dasharray:none;stroke-opacity:1"
   ry="2.5773773" /><rect
   y="63.701359"
   x="71.2034"
   height="40.482845"
   width="43.567368"
   id="rect5375"
   style="fill:#898989;fill-opacity:1;stroke:none;stroke-width:0.66297716;stroke-miterlimit:4;stroke-dasharray:none;stroke-opacity:1"
   ry="2.5773773" /><rect
   ry="2.5773773"
   style="fill:#fff1d0;fill-opacity:1;stroke:none;stroke-width:0.66297716;stroke-miterlimit:4;stroke-dasharray:none;stroke-opacity:1"
   id="rect5493"
   width="43.567368"
   height="40.482845"
   x="22.678493"
   y="15.57578" /><rect
   y="63.701359"
   x="22.678493"
   height="40.482845"
   width="43.567368"
   id="rect5507"
   style="fill:#f9f9f3;fill-opacity:1;stroke:none;stroke-width:0.66297716;stroke-miterlimit:4;stroke-dasharray:none;stroke-opacity:1"
   ry="2.5773773" /><text
   xml:space="preserve"
   style="font-style:normal;font-weight:normal;font-size:40px;line-height:1.25;font-family:sans-serif;letter-spacing:0px;word-spacing:0px;fill:#021e26;fill-opacity:1;stroke:none"
   x="79.31955"
   y="97.983002"
   id="text5473"><tspan
     sodipodi:role="line"
     id="tspan5471"
     x="79.31955"
     y="97.983002">A</tspan></text>
<text
   id="text5561"
   y="49.982998"
   x="79.31955"
   style="font-style:normal;font-weight:normal;font-size:40px;line-height:1.25;font-family:sans-serif;letter-spacing:0px;word-spacing:0px;fill:#f9f9f3;fill-opacity:1;stroke:none"
   xml:space="preserve"><tspan
     y="49.982998"
     x="79.31955"
     id="tspan5559"
     sodipodi:role="line">A</tspan></text>
<text
   xml:space="preserve"
   style="font-style:normal;font-weight:normal;font-size:40px;line-height:1.25;font-family:sans-serif;letter-spacing:0px;word-spacing:0px;fill:#fff1d0;fill-opacity:1;stroke:none"
   x="276.21869"
   y="49.049831"
   id="text5581"><tspan
     sodipodi:role="line"
     id="tspan5579"
     x="276.21869"
     y="49.049831">A</tspan></text>
<text
   id="text5585"
   y="97.983002"
   x="79.31955"
   style="font-style:normal;font-weight:normal;font-size:40px;line-height:1.25;font-family:sans-serif;letter-spacing:0px;word-spacing:0px;fill:#021e26;fill-opacity:1;stroke:none"
   xml:space="preserve"><tspan
     y="97.983002"
     x="79.31955"
     id="tspan5583"
     sodipodi:role="line">A</tspan></text>
<text
   xml:space="preserve"
   style="font-style:normal;font-weight:normal;font-size:40px;line-height:1.25;font-family:sans-serif;letter-spacing:0px;word-spacing:0px;fill:#021e26;fill-opacity:1;stroke:none"
   x="79.31955"
   y="97.983002"
   id="text5589"><tspan
     sodipodi:role="line"
     id="tspan5587"
     x="79.31955"
     y="97.983002">A</tspan></text>
<text
   id="text5593"
   y="97.049828"
   x="128.4447"
   style="font-style:normal;font-weight:normal;font-size:40px;line-height:1.25;font-family:sans-serif;letter-spacing:0px;word-spacing:0px;fill:#fff1d0;fill-opacity:1;stroke:none"
   xml:space="preserve"><tspan
     y="97.049828"
     x="128.4447"
     id="tspan5591"
     sodipodi:role="line">A</tspan></text>
<text
   xml:space="preserve"
   style="font-style:normal;font-weight:normal;font-size:40px;line-height:1.25;font-family:sans-serif;letter-spacing:0px;word-spacing:0px;fill:#fff1d0;fill-opacity:1;stroke:none"
   x="128.4447"
   y="51.049824"
   id="text5597"><tspan
     sodipodi:role="line"
     id="tspan5595"
     x="128.4447"
     y="51.049824">A</tspan></text>
<text
   id="text5601"
   y="51.049824"
   x="176.4447"
   style="font-style:normal;font-weight:normal;font-size:40px;line-height:1.25;font-family:sans-serif;letter-spacing:0px;word-spacing:0px;fill:#fff1d0;fill-opacity:1;stroke:none"
   xml:space="preserve"><tspan
     y="51.049824"
     x="176.4447"
     id="tspan5599"
     sodipodi:role="line">A</tspan></text>
<text
   xml:space="preserve"
   style="font-style:normal;font-weight:normal;font-size:40px;line-height:1.25;font-family:sans-serif;letter-spacing:0px;word-spacing:0px;fill:#021e26;fill-opacity:1;stroke:none"
   x="176.4447"
   y="97.049828"
   id="text5605"><tspan
     sodipodi:role="line"
     id="tspan5603"
     x="176.4447"
     y="97.049828">A</tspan></text>
<text
   id="text5609"
   y="97.049828"
   x="226.4447"
   style="font-style:normal;font-weight:normal;font-size:40px;line-height:1.25;font-family:sans-serif;letter-spacing:0px;word-spacing:0px;fill:#021e26;fill-opacity:1;stroke:none"
   xml:space="preserve"><tspan
     y="97.049828"
     x="226.4447"
     id="tspan5607"
     sodipodi:role="line">A</tspan></text>
<text
   xml:space="preserve"
   style="font-style:normal;font-weight:normal;font-size:40px;line-height:1.25;font-family:sans-serif;letter-spacing:0px;word-spacing:0px;fill:#021e26;fill-opacity:1;stroke:none"
   x="226.4447"
   y="51.049824"
   id="text5613"><tspan
     sodipodi:role="line"
     id="tspan5611"
     x="226.4447"
     y="51.049824">A</tspan></text>
<text
   id="text5617"
   y="99.049828"
   x="276.4447"
   style="font-style:normal;font-weight:normal;font-size:40px;line-height:1.25;font-family:sans-serif;letter-spacing:0px;word-spacing:0px;fill:#f9f9f3;fill-opacity:1;stroke:none"
   xml:space="preserve"><tspan
     y="99.049828"
     x="276.4447"
     id="tspan5615"
     sodipodi:role="line">A</tspan></text>
<text
   id="text5621"
   y="97.983002"
   x="29.319546"
   style="font-style:normal;font-weight:normal;font-size:40px;line-height:1.25;font-family:sans-serif;letter-spacing:0px;word-spacing:0px;fill:#021e26;fill-opacity:1;stroke:none"
   xml:space="preserve"><tspan
     y="97.983002"
     x="29.319546"
     id="tspan5619"
     sodipodi:role="line">A</tspan></text>
<text
   xml:space="preserve"
   style="font-style:normal;font-weight:normal;font-size:40px;line-height:1.25;font-family:sans-serif;letter-spacing:0px;word-spacing:0px;fill:#021e26;fill-opacity:1;stroke:none"
   x="29.319546"
   y="49.982998"
   id="text5625"><tspan
     sodipodi:role="line"
     id="tspan5623"
     x="29.319546"
     y="49.982998">A</tspan></text>
<circle
   style="opacity:1;fill:#f0c808;fill-opacity:1;stroke:none;stroke-width:2;stroke-miterlimit:4;stroke-dasharray:none;stroke-opacity:1"
   id="path5627"
   cx="87.718117"
   cy="217.42891"
   r="43.859051" /><rect
   y="176.61346"
   x="152.48943"
   height="78.742867"
   width="82.760567"
   id="rect5629"
   style="fill:#086788;fill-opacity:1;stroke:none;stroke-width:1.27438235;stroke-miterlimit:4;stroke-dasharray:none;stroke-opacity:1"
   ry="5.0132365" /><path
   style="fill:#19c307;fill-opacity:1;stroke:none;stroke-width:1.27438235;stroke-miterlimit:4;stroke-dasharray:none;stroke-opacity:1"
   d="m 273.21591,176.61346 c 37.32685,-29.86148 41.00627,26.1288 72.7341,0 2.14391,-1.76557 5.01323,2.2359 5.01323,5.01323 v 68.7164 c 0,2.77733 -2.23591,5.01323 -5.01323,5.01323 -31.72783,0 -43.3392,-0.46659 -72.7341,0 -2.77698,0.0441 -5.01323,-2.2359 -5.01323,-5.01323 v -68.7164 c 0,-2.77733 2.8445,-3.27825 5.01323,-5.01323 z"
   id="rect5631"
   inkscape:connector-curvature="0"
   sodipodi:nodetypes="sssssssss" /><g
   id="g5645"
   transform="translate(30.794654)"
   style="fill:#088810;fill-opacity:1"><path
     sodipodi:nodetypes="sssscscs"
     inkscape:connector-curvature="0"
     id="circle5637"
     d="m 427.85907,239.99515 c 0,11.72481 -17.65184,21.22964 -39.42648,21.22964 -21.77464,0 -39.42649,-9.50483 -39.42649,-21.22964 0,-4.35764 0.11937,-22.13226 0.18064,-30.96999 0.0212,-3.05184 0.0354,-5.03799 0.0354,-5.03799 0,0 9.20048,13.77906 39.21045,14.77833 25.3546,0.84426 40.00996,-14.44541 40.00996,-14.44541 0,0 -0.58348,29.81265 -0.58348,35.67506 z"
     style="opacity:1;fill:#088810;fill-opacity:1;stroke:none;stroke-width:1.31927752;stroke-miterlimit:4;stroke-dasharray:none;stroke-opacity:1" /><path
     id="ellipse5639"
     d="m 427.85907,193.39977 a 39.426487,21.229647 0 0 1 -39.42648,21.22964 39.426487,21.229647 0 0 1 -39.42649,-21.22964 39.426487,21.229647 0 0 1 39.42649,-21.22965 39.426487,21.229647 0 0 1 39.42648,21.22965 z"
     style="opacity:1;fill:#088810;fill-opacity:1;stroke:none;stroke-width:1.31927752;stroke-miterlimit:4;stroke-dasharray:none;stroke-opacity:1"
     inkscape:connector-curvature="0" /></g><g
   id="g5690"
   transform="translate(35.46051)"
   style="fill:#f09308;fill-opacity:1"><g
     transform="translate(-4.9609375e-6,-0.8248147)"
     id="g5664"
     style="fill:#f09308;fill-opacity:1"><path
       style="fill:#f09308;fill-opacity:1;stroke:none;stroke-width:1.05536306;stroke-miterlimit:4;stroke-dasharray:none;stroke-opacity:1"
       d="m 463.2807,197.60948 v 44.68211 c -6.5322,0 -14.04278,-6.26308 -14.04278,-14.04278 v -16.59655 c 0,-7.7797 8.44375,-14.04278 14.04278,-14.04278 z"
       id="rect5647"
       inkscape:connector-curvature="0"
       sodipodi:nodetypes="ccssc" /><rect
       style="opacity:1;fill:#f09308;fill-opacity:1;stroke:none;stroke-width:2.01871848;stroke-miterlimit:4;stroke-dasharray:none;stroke-opacity:1"
       id="rect5649"
       width="13.064399"
       height="44.683865"
       x="462.91858"
       y="197.60773" /></g><rect
     style="opacity:1;fill:#f09308;fill-opacity:1;stroke:none;stroke-width:2.01871848;stroke-miterlimit:4;stroke-dasharray:none;stroke-opacity:1"
     id="rect5668"
     width="13.064399"
     height="44.683865"
     x="481.84442"
     y="196.78291" /><g
     transform="matrix(-1,0,0,1,995.67908,-0.8248147)"
     id="g5678"
     style="fill:#f09308;fill-opacity:1"><path
       sodipodi:nodetypes="ccssc"
       inkscape:connector-curvature="0"
       id="path5674"
       d="m 463.2807,197.60948 v 44.68211 c -6.5322,0 -14.04278,-6.26308 -14.04278,-14.04278 v -16.59655 c 0,-7.7797 8.44375,-14.04278 14.04278,-14.04278 z"
       style="fill:#f09308;fill-opacity:1;stroke:none;stroke-width:1.05536306;stroke-miterlimit:4;stroke-dasharray:none;stroke-opacity:1" /><rect
       y="197.60773"
       x="462.91858"
       height="44.683865"
       width="13.064399"
       id="rect5676"
       style="opacity:1;fill:#f09308;fill-opacity:1;stroke:none;stroke-width:2.01871848;stroke-miterlimit:4;stroke-dasharray:none;stroke-opacity:1" /></g><rect
     y="196.78291"
     x="500.77026"
     height="44.683865"
     width="13.064399"
     id="rect5680"
     style="opacity:1;fill:#f09308;fill-opacity:1;stroke:none;stroke-width:2.01871848;stroke-miterlimit:4;stroke-dasharray:none;stroke-opacity:1" /></g><text
   id="text5733"
   y="51.049824"
   x="226.4447"
   style="font-style:normal;font-weight:normal;font-size:40px;line-height:1.25;font-family:sans-serif;letter-spacing:0px;word-spacing:0px;fill:#021e26;fill-opacity:1;stroke:none"
   xml:space="preserve"><tspan
     y="51.049824"
     x="226.4447"
     id="tspan5731"
     sodipodi:role="line">A</tspan></text>
<g
   id="g5980"
   style="fill:#07a0c3;fill-opacity:1"
   transform="translate(-298.61482,232.35965)"><path
     sodipodi:nodetypes="ccccccccc"
     inkscape:connector-curvature="0"
     id="path5901"
     d="M 550.86826,371.76834 V 304.7717 c 0.23329,-4.19917 -3.41029,-8.35538 -13.74985,-7.88879 h -60.8021 l -1.39897,1.63227 h 60.42284 c 11.89793,-0.46659 13.66408,2.98981 13.66408,7.88896 v 66.99804 z"
     style="fill:#07a0c3;fill-opacity:1;stroke:none;stroke-width:1.00312304px;stroke-linecap:butt;stroke-linejoin:miter;stroke-opacity:1" /><path
     inkscape:connector-curvature="0"
     id="rect5895"
     d="m 468.77365,301.19141 c -2.77734,0 -5.01367,2.23634 -5.01367,5.01367 v 6.93359 a 16.797083,15.397326 0 0 0 -15.5039,15.33789 16.797083,15.397326 0 0 0 15.5039,15.34766 v 31.09766 c 0,2.77733 2.23633,5.01367 5.01367,5.01367 h 72.73438 c 2.77733,0 5.01367,-2.23635 5.01367,-5.01367 v -68.7168 c 0,-2.77733 -2.23634,-5.01367 -5.01367,-5.01367 z m -5.45703,17.93164 c 0.83677,0 1.67021,0.10051 2.5,0.30273 0.83677,0.20222 1.76319,0.55737 2.78125,1.06641 v 2.45898 h -0.15625 c -0.85768,-0.71822 -1.70899,-1.24258 -2.55273,-1.57031 -0.84374,-0.32773 -1.7467,-0.49024 -2.70899,-0.49024 -0.78795,0 -1.49826,0.12872 -2.13281,0.38672 -0.62757,0.25103 -1.1885,0.64472 -1.68359,1.18164 -0.48114,0.52298 -0.85891,1.18443 -1.13086,1.98633 -0.26498,0.79493 -0.39649,1.71576 -0.39649,2.76172 0,1.09477 0.14659,2.03626 0.43946,2.82422 0.29984,0.78796 0.68319,1.42874 1.15039,1.92383 0.48811,0.516 1.05658,0.90131 1.70508,1.15234 0.65546,0.24406 1.34511,0.36524 2.07031,0.36524 0.99715,0 1.9311,-0.17004 2.80273,-0.51172 0.87164,-0.34168 1.68721,-0.85571 2.44727,-1.53906 h 0.14648 v 2.42773 c -0.38352,0.16735 -0.73113,0.32427 -1.04492,0.4707 -0.30681,0.14644 -0.71083,0.29861 -1.21289,0.45899 -0.42536,0.13249 -0.89052,0.24528 -1.39258,0.33593 -0.49508,0.0976 -1.04094,0.14649 -1.64062,0.14649 -1.12964,0 -2.15852,-0.15692 -3.08594,-0.4707 -0.92044,-0.32077 -1.72289,-0.81971 -2.40625,-1.4961 -0.66941,-0.66244 -1.19181,-1.50342 -1.56836,-2.52148 -0.37654,-1.02504 -0.56445,-2.21364 -0.56445,-3.56641 0,-1.28304 0.18037,-2.43031 0.54297,-3.44141 0.3626,-1.01109 0.885,-1.86519 1.56836,-2.5625 0.66244,-0.67638 1.46209,-1.19124 2.39648,-1.54687 0.94136,-0.35563 1.98337,-0.5332 3.12695,-0.5332 z"
     style="fill:#07a0c3;fill-opacity:1;stroke:none;stroke-width:1.27438235;stroke-miterlimit:4;stroke-dasharray:none;stroke-opacity:1" /><path
     style="fill:#07a0c3;fill-opacity:1;stroke:none;stroke-width:1.00312304px;stroke-linecap:butt;stroke-linejoin:miter;stroke-opacity:1"
     d="m 554.36765,368.73553 v -66.99664 c 0.23329,-4.19917 -3.41029,-8.35538 -13.74985,-7.88879 h -60.8021 l -1.39897,1.63227 h 60.42284 c 11.89793,-0.46659 13.66408,2.98981 13.66408,7.88896 v 66.99804 z"
     id="path5975"
     inkscape:connector-curvature="0"
     sodipodi:nodetypes="ccccccccc" /></g><g
   id="g6032"
   transform="translate(-358.33779,291.14945)"><path
     style="fill:#07a0c3;fill-opacity:1;stroke:none;stroke-width:1.00312304px;stroke-linecap:butt;stroke-linejoin:miter;stroke-opacity:1"
     d="m 524.08667,408.6286 v -66.99664 c -0.23329,-4.19917 3.41029,-8.35538 13.74985,-7.88879 h 60.8021 l 1.39897,1.63227 h -60.42284 c -11.89793,-0.46659 -13.66408,2.98981 -13.66408,7.88896 v 66.99804 z"
     id="path5982"
     inkscape:connector-curvature="0"
     sodipodi:nodetypes="ccccccccc" /><path
     id="path5984"
     d="m 533.44531,338.05078 c -2.77733,0 -5.01367,2.23634 -5.01367,5.01367 v 68.7168 c 0,2.77732 2.23634,5.01367 5.01367,5.01367 h 72.73438 c 2.77734,0 5.01367,-2.23634 5.01367,-5.01367 v -31.09766 a 16.797083,15.397326 0 0 0 15.50391,-15.34765 16.797083,15.397326 0 0 0 -15.50391,-15.33789 v -6.9336 c 0,-2.77733 -2.23633,-5.01367 -5.01367,-5.01367 z m 79.4043,19.19727 c 0.83677,0 1.67021,0.10247 2.5,0.30468 0.83677,0.20222 1.76514,0.55738 2.7832,1.06641 v 2.45703 h -0.1582 c -0.85769,-0.71822 -1.70899,-1.24062 -2.55273,-1.56836 -0.84375,-0.32773 -1.74671,-0.49219 -2.70899,-0.49219 -0.78796,0 -1.49826,0.12872 -2.13281,0.38672 -0.62758,0.25103 -1.18851,0.64667 -1.6836,1.1836 -0.48114,0.52298 -0.85891,1.18442 -1.13086,1.98633 -0.26497,0.79492 -0.39648,1.71576 -0.39648,2.76171 0,1.09477 0.14659,2.03627 0.43945,2.82422 0.29985,0.78796 0.6832,1.42874 1.15039,1.92383 0.48812,0.51601 1.05659,0.89936 1.70508,1.15039 0.65547,0.24406 1.34512,0.36719 2.07032,0.36719 0.99714,0 1.9311,-0.17199 2.80273,-0.51367 0.87163,-0.34168 1.68915,-0.85375 2.44922,-1.53711 h 0.14648 v 2.42773 c -0.38352,0.16736 -0.73308,0.32232 -1.04687,0.46875 -0.30682,0.14644 -0.71083,0.30056 -1.21289,0.46094 -0.42536,0.13249 -0.88857,0.24333 -1.39063,0.33398 -0.49509,0.0976 -1.04289,0.14649 -1.64258,0.14649 -1.12963,0 -2.15852,-0.15692 -3.08593,-0.4707 -0.92045,-0.32077 -1.72289,-0.81776 -2.40625,-1.49414 -0.66942,-0.66245 -1.19182,-1.50342 -1.56836,-2.52149 -0.37655,-1.02504 -0.56446,-2.21363 -0.56446,-3.56641 0,-1.28304 0.18037,-2.43031 0.54297,-3.4414 0.3626,-1.0111 0.885,-1.8652 1.56836,-2.5625 0.66244,-0.67639 1.4621,-1.1932 2.39649,-1.54883 0.94136,-0.35563 1.98337,-0.5332 3.12695,-0.5332 z"
     style="fill:#07a0c3;fill-opacity:1;stroke:none;stroke-width:1.27438235;stroke-miterlimit:4;stroke-dasharray:none;stroke-opacity:1"
     inkscape:connector-curvature="0" /><path
     sodipodi:nodetypes="ccccccccc"
     inkscape:connector-curvature="0"
     id="path5986"
     d="m 520.58728,405.59579 v -66.99664 c -0.23329,-4.19917 3.41029,-8.35538 13.74985,-7.88879 h 60.8021 l 1.39897,1.63227 h -60.42284 c -11.89793,-0.46659 -13.66408,2.98981 -13.66408,7.88896 v 66.99804 z"
     style="fill:#07a0c3;fill-opacity:1;stroke:none;stroke-width:1.00312304px;stroke-linecap:butt;stroke-linejoin:miter;stroke-opacity:1" /></g><g
   id="g6023"
   transform="translate(-230.02673,194.89915)"><path
     sodipodi:nodetypes="ccccccccc"
     inkscape:connector-curvature="0"
     id="path6017"
     d="m 521.75374,410.02836 v -66.99664 c -0.23329,-4.19917 3.41029,-8.35538 13.74985,-7.88879 h 60.8021 l 1.39897,1.63227 h -60.42284 c -11.89793,-0.46659 -13.66408,2.98981 -13.66408,7.88896 v 66.99804 z"
     style="fill:#07a0c3;fill-opacity:1;stroke:none;stroke-width:1.00312304px;stroke-linecap:butt;stroke-linejoin:miter;stroke-opacity:1" /><path
     style="fill:#07a0c3;fill-opacity:1;stroke:none;stroke-width:1.27438235;stroke-miterlimit:4;stroke-dasharray:none;stroke-opacity:1"
     d="m 531.11328,339.45117 c -2.77733,0 -5.01367,2.23634 -5.01367,5.01367 v 68.7168 c 0,2.77732 2.23634,5.01367 5.01367,5.01367 h 72.73438 c 2.77734,0 5.01367,-2.23634 5.01367,-5.01367 v -31.09766 a 16.797083,15.397326 0 0 0 15.5039,-15.34765 16.797083,15.397326 0 0 0 -15.5039,-15.33789 v -6.9336 c 0,-2.77733 -2.23633,-5.01367 -5.01367,-5.01367 z"
     id="path6019"
     inkscape:connector-curvature="0" /><path
     style="fill:#07a0c3;fill-opacity:1;stroke:none;stroke-width:1.00312304px;stroke-linecap:butt;stroke-linejoin:miter;stroke-opacity:1"
     d="m 518.25435,406.99555 v -66.99664 c -0.23329,-4.19917 3.41029,-8.35538 13.74985,-7.88879 h 60.8021 l 1.39897,1.63227 h -60.42284 c -11.89793,-0.46659 -13.66408,2.98981 -13.66408,7.88896 v 66.99804 z"
     id="path6021"
     inkscape:connector-curvature="0"
     sodipodi:nodetypes="ccccccccc" /></g><g
   transform="matrix(-1,0,0,1,989.10245,285.55042)"
   id="g6040"><path
     style="fill:#07a0c3;fill-opacity:1;stroke:none;stroke-width:1.00312304px;stroke-linecap:butt;stroke-linejoin:miter;stroke-opacity:1"
     d="m 521.75374,410.02836 v -66.99664 c -0.23329,-4.19917 3.41029,-8.35538 13.74985,-7.88879 h 60.8021 l 1.39897,1.63227 h -60.42284 c -11.89793,-0.46659 -13.66408,2.98981 -13.66408,7.88896 v 66.99804 z"
     id="path6034"
     inkscape:connector-curvature="0"
     sodipodi:nodetypes="ccccccccc" /><path
     inkscape:connector-curvature="0"
     id="path6036"
     d="m 531.11328,339.45117 c -2.77733,0 -5.01367,2.23634 -5.01367,5.01367 v 68.7168 c 0,2.77732 2.23634,5.01367 5.01367,5.01367 h 72.73438 c 2.77734,0 5.01367,-2.23634 5.01367,-5.01367 v -31.09766 a 16.797083,15.397326 0 0 0 15.5039,-15.34765 16.797083,15.397326 0 0 0 -15.5039,-15.33789 v -6.9336 c 0,-2.77733 -2.23633,-5.01367 -5.01367,-5.01367 z"
     style="fill:#07a0c3;fill-opacity:1;stroke:none;stroke-width:1.27438235;stroke-miterlimit:4;stroke-dasharray:none;stroke-opacity:1" /><path
     sodipodi:nodetypes="ccccccccc"
     inkscape:connector-curvature="0"
     id="path6038"
     d="m 518.25435,406.99555 v -66.99664 c -0.23329,-4.19917 3.41029,-8.35538 13.74985,-7.88879 h 60.8021 l 1.39897,1.63227 h -60.42284 c -11.89793,-0.46659 -13.66408,2.98981 -13.66408,7.88896 v 66.99804 z"
     style="fill:#07a0c3;fill-opacity:1;stroke:none;stroke-width:1.00312304px;stroke-linecap:butt;stroke-linejoin:miter;stroke-opacity:1" /></g><circle
   style="opacity:1;fill:#f0c808;fill-opacity:1;stroke:none;stroke-width:0.8085106;stroke-miterlimit:4;stroke-dasharray:none;stroke-opacity:1"
   id="ellipse6094"
   cx="17.237946"
   cy="216.07336"
   r="17.730255" /><g
   id="g6138"
   style="fill:#07a0c3;fill-opacity:1"
   transform="translate(-798.79465,380.7339)"><path
     sodipodi:nodetypes="ccccccccc"
     inkscape:connector-curvature="0"
     id="path6050"
     d="m 944.19927,225.26043 v -66.99664 c 0.23329,-4.19917 -3.41029,-8.35538 -13.74985,-7.88879 h -60.8021 l -1.39897,1.63227 h 60.42284 c 11.89793,-0.46659 13.66408,2.98981 13.66408,7.88896 v 66.99804 z"
     style="fill:#07a0c3;fill-opacity:1;stroke:none;stroke-width:1.00312304px;stroke-linecap:butt;stroke-linejoin:miter;stroke-opacity:1" /><path
     style="fill:#07a0c3;fill-opacity:1;stroke:none;stroke-width:1.00312304px;stroke-linecap:butt;stroke-linejoin:miter;stroke-opacity:1"
     d="m 947.69866,222.22762 v -66.99664 c 0.23329,-4.19917 -3.41029,-8.35538 -13.74985,-7.88879 h -60.8021 l -1.39897,1.63227 h 60.42284 c 11.89793,-0.46659 13.66408,2.98981 13.66408,7.88896 v 66.99804 z"
     id="path6054"
     inkscape:connector-curvature="0"
     sodipodi:nodetypes="ccccccccc" /><g
     style="fill:#07a0c3;fill-opacity:1"
     transform="translate(77.120291,-280.41799)"
     id="g6130"><path
       style="fill:#07a0c3;fill-opacity:1;stroke:none;stroke-width:1.27438235;stroke-miterlimit:4;stroke-dasharray:none;stroke-opacity:1"
       d="m 785.23155,434.36269 c -2.77733,0 -5.01172,2.23634 -5.01172,5.01367 v 5.14258 a 17.730255,17.730255 0 0 1 1.98828,-0.13282 17.730255,17.730255 0 0 1 17.73047,17.73047 17.730255,17.730255 0 0 1 -17.73047,17.73047 17.730255,17.730255 0 0 1 -1.98828,-0.12109 v 28.36719 c 0,2.77733 2.23439,5.01367 5.01172,5.01367 h 72.73437 c 2.77734,0 5.01368,-2.23634 5.01368,-5.01367 v -68.7168 c 0,-2.77733 -2.23634,-5.01367 -5.01368,-5.01367 z"
       id="rect6101"
       inkscape:connector-curvature="0" /><text
       id="text6114"
       y="469.4892"
       x="779.78046"
       style="font-style:normal;font-weight:normal;font-size:21.42124176px;line-height:1.25;font-family:sans-serif;letter-spacing:0px;word-spacing:0px;fill:#07a0c3;fill-opacity:1;stroke:none;stroke-width:0.53553104"
       xml:space="preserve"><tspan
         style="fill:#07a0c3;fill-opacity:1;stroke-width:0.53553104"
         y="469.4892"
         x="779.78046"
         id="tspan6112"
         sodipodi:role="line">S</tspan></text>
</g></g><g
   id="g6168"
   transform="translate(-798.79465,380.7339)"><path
     style="fill:#07a0c3;fill-opacity:1;stroke:none;stroke-width:1.00312304px;stroke-linecap:butt;stroke-linejoin:miter;stroke-opacity:1"
     d="m 864.58265,319.51073 v -66.99664 c -0.23329,-4.19917 3.41029,-8.35538 13.74985,-7.88879 h 60.8021 l 1.39897,1.63227 h -60.42284 c -11.89793,-0.46659 -13.66408,2.98981 -13.66408,7.88896 v 66.99804 z"
     id="path6140"
     inkscape:connector-curvature="0"
     sodipodi:nodetypes="ccccccccc" /><path
     sodipodi:nodetypes="ccccccccc"
     inkscape:connector-curvature="0"
     id="path6142"
     d="m 861.08326,316.47792 v -66.99664 c -0.23329,-4.19917 3.41029,-8.35538 13.74985,-7.88879 h 60.8021 l 1.39897,1.63227 h -60.42284 c -11.89793,-0.46659 -13.66408,2.98981 -13.66408,7.88896 v 66.99804 z"
     style="fill:#07a0c3;fill-opacity:1;stroke:none;stroke-width:1.00312304px;stroke-linecap:butt;stroke-linejoin:miter;stroke-opacity:1" /><path
     style="fill:#07a0c3;fill-opacity:1;stroke:none;stroke-width:1.27438235;stroke-miterlimit:4;stroke-dasharray:none;stroke-opacity:1"
     d="m 946.43005,248.195 c 2.77733,0 5.01172,2.23634 5.01172,5.01367 v 5.14258 a 17.730255,17.730255 0 0 0 -1.98828,-0.13282 17.730255,17.730255 0 0 0 -17.73047,17.73047 17.730255,17.730255 0 0 0 17.73047,17.73047 17.730255,17.730255 0 0 0 1.98828,-0.12109 v 28.36719 c 0,2.77733 -2.23439,5.01367 -5.01172,5.01367 h -72.73437 c -2.77734,0 -5.01368,-2.23634 -5.01368,-5.01367 v -68.7168 c 0,-2.77733 2.23634,-5.01367 5.01368,-5.01367 z"
     id="path6144"
     inkscape:connector-curvature="0" /><text
     id="text6148"
     y="283.3215"
     x="937.07037"
     style="font-style:normal;font-weight:normal;font-size:21.42124176px;line-height:1.25;font-family:sans-serif;letter-spacing:0px;word-spacing:0px;fill:#07a0c3;fill-opacity:1;stroke:none;stroke-width:0.53553104"
     xml:space="preserve"><tspan
       style="fill:#07a0c3;fill-opacity:1;stroke-width:0.53553104"
       y="283.3215"
       x="937.07037"
       id="tspan6146"
       sodipodi:role="line">S</tspan></text>
</g><g
   id="g6218"
   transform="translate(-568.30134,382.60024)"><path
     style="fill:#07a0c3;fill-opacity:1;stroke:none;stroke-width:1.00312304px;stroke-linecap:butt;stroke-linejoin:miter;stroke-opacity:1"
     d="m 1054.3135,223.39409 v -66.99664 c 0.2333,-4.19917 -3.4103,-8.35538 -13.7499,-7.88879 h -60.80206 l -1.39897,1.63227 h 60.42283 c 11.8979,-0.46659 13.6641,2.98981 13.6641,7.88896 v 66.99804 z"
     id="path6170"
     inkscape:connector-curvature="0"
     sodipodi:nodetypes="ccccccccc" /><path
     sodipodi:nodetypes="ccccccccc"
     inkscape:connector-curvature="0"
     id="path6172"
     d="m 1057.8129,220.36128 v -66.99664 c 0.2333,-4.19917 -3.4103,-8.35538 -13.7499,-7.88879 h -60.80207 l -1.39897,1.63227 h 60.42284 c 11.8979,-0.46659 13.6641,2.98981 13.6641,7.88896 v 66.99804 z"
     style="fill:#07a0c3;fill-opacity:1;stroke:none;stroke-width:1.00312304px;stroke-linecap:butt;stroke-linejoin:miter;stroke-opacity:1" /><path
     style="fill:#07a0c3;fill-opacity:1;stroke:none;stroke-width:1.27438235;stroke-miterlimit:4;stroke-dasharray:none;stroke-opacity:1"
     d="m 972.46606,152.07836 c -2.77733,0 -5.01172,2.23634 -5.01172,5.01367 v 5.14258 a 17.730255,17.730255 0 0 1 1.98828,-0.13282 17.730255,17.730255 0 0 1 17.73047,17.73047 17.730255,17.730255 0 0 1 -17.73047,17.73047 17.730255,17.730255 0 0 1 -1.98828,-0.12109 v 28.36719 c 0,2.77733 2.23439,5.01367 5.01172,5.01367 h 72.73434 c 2.7774,0 5.0137,-2.23634 5.0137,-5.01367 v -68.7168 c 0,-2.77733 -2.2363,-5.01367 -5.0137,-5.01367 z"
     id="path6174"
     inkscape:connector-curvature="0" /></g><g
   id="g6213"
   transform="translate(-684.94775,379.80073)"><path
     sodipodi:nodetypes="ccccccccc"
     inkscape:connector-curvature="0"
     id="path6184"
     d="m 974.69687,317.64439 v -66.99664 c -0.23329,-4.19917 3.41029,-8.35538 13.74985,-7.88879 h 60.80208 l 1.399,1.63227 h -60.42285 c -11.89793,-0.46659 -13.66408,2.98981 -13.66408,7.88896 v 66.99804 z"
     style="fill:#07a0c3;fill-opacity:1;stroke:none;stroke-width:1.00312304px;stroke-linecap:butt;stroke-linejoin:miter;stroke-opacity:1" /><path
     style="fill:#07a0c3;fill-opacity:1;stroke:none;stroke-width:1.00312304px;stroke-linecap:butt;stroke-linejoin:miter;stroke-opacity:1"
     d="m 971.19748,314.61158 v -66.99664 c -0.23329,-4.19917 3.41029,-8.35538 13.74985,-7.88879 h 60.80207 l 1.399,1.63227 h -60.42284 c -11.89793,-0.46659 -13.66408,2.98981 -13.66408,7.88896 v 66.99804 z"
     id="path6186"
     inkscape:connector-curvature="0"
     sodipodi:nodetypes="ccccccccc" /><path
     inkscape:connector-curvature="0"
     id="path6188"
     d="m 1056.5443,246.32866 c 2.7773,0 5.0117,2.23634 5.0117,5.01367 v 5.14258 a 17.730255,17.730255 0 0 0 -1.9883,-0.13282 17.730255,17.730255 0 0 0 -17.7305,17.73047 17.730255,17.730255 0 0 0 17.7305,17.73047 17.730255,17.730255 0 0 0 1.9883,-0.12109 v 28.36719 c 0,2.77733 -2.2344,5.01367 -5.0117,5.01367 h -72.7344 c -2.77734,0 -5.01368,-2.23634 -5.01368,-5.01367 v -68.7168 c 0,-2.77733 2.23634,-5.01367 5.01368,-5.01367 z"
     style="fill:#07a0c3;fill-opacity:1;stroke:none;stroke-width:1.27438235;stroke-miterlimit:4;stroke-dasharray:none;stroke-opacity:1" /></g><path
   inkscape:connector-curvature="0"
   id="path6222"
   d="m 158.02761,337.58508 c -2.77734,0 -5.01367,2.23634 -5.01367,5.01367 v 6.93359 a 16.797083,15.397326 0 0 0 -15.5039,15.33789 16.797083,15.397326 0 0 0 15.5039,15.34766 v 31.09766 c 0,2.77733 2.23633,5.01367 5.01367,5.01367 h 72.73438 c 2.77733,0 5.01367,-2.23635 5.01367,-5.01367 v -68.7168 c 0,-2.77733 -2.23634,-5.01367 -5.01367,-5.01367 z m -5.45703,17.93164 c 0.83677,0 1.67021,0.10051 2.5,0.30273 0.83677,0.20222 1.76319,0.55737 2.78125,1.06641 v 2.45898 h -0.15625 c -0.85768,-0.71822 -1.70899,-1.24258 -2.55273,-1.57031 -0.84374,-0.32773 -1.7467,-0.49024 -2.70899,-0.49024 -0.78795,0 -1.49826,0.12872 -2.13281,0.38672 -0.62757,0.25103 -1.1885,0.64472 -1.68359,1.18164 -0.48114,0.52298 -0.85891,1.18443 -1.13086,1.98633 -0.26498,0.79493 -0.39649,1.71576 -0.39649,2.76172 0,1.09477 0.14659,2.03626 0.43946,2.82422 0.29984,0.78796 0.68319,1.42874 1.15039,1.92383 0.48811,0.516 1.05658,0.90131 1.70508,1.15234 0.65546,0.24406 1.34511,0.36524 2.07031,0.36524 0.99715,0 1.9311,-0.17004 2.80273,-0.51172 0.87164,-0.34168 1.68721,-0.85571 2.44727,-1.53906 h 0.14648 v 2.42773 c -0.38352,0.16735 -0.73113,0.32427 -1.04492,0.4707 -0.30681,0.14644 -0.71083,0.29861 -1.21289,0.45899 -0.42536,0.13249 -0.89052,0.24528 -1.39258,0.33593 -0.49508,0.0976 -1.04094,0.14649 -1.64062,0.14649 -1.12964,0 -2.15852,-0.15692 -3.08594,-0.4707 -0.92044,-0.32077 -1.72289,-0.81971 -2.40625,-1.4961 -0.66941,-0.66244 -1.19181,-1.50342 -1.56836,-2.52148 -0.37654,-1.02504 -0.56445,-2.21364 -0.56445,-3.56641 0,-1.28304 0.18037,-2.43031 0.54297,-3.44141 0.3626,-1.01109 0.885,-1.86519 1.56836,-2.5625 0.66244,-0.67638 1.46209,-1.19124 2.39648,-1.54687 0.94136,-0.35563 1.98337,-0.5332 3.12695,-0.5332 z"
   style="fill:#07a0c3;fill-opacity:1;stroke:none;stroke-width:1.27438235;stroke-miterlimit:4;stroke-dasharray:none;stroke-opacity:1" /><path
   id="path6230"
   d="m 161.10996,431.36791 c -2.77733,0 -5.01367,2.23634 -5.01367,5.01367 v 68.71679 c 0,2.77732 2.23634,5.01367 5.01367,5.01367 h 72.73438 c 2.77734,0 5.01367,-2.23634 5.01367,-5.01367 v -31.09765 a 16.797083,15.397326 0 0 0 15.50391,-15.34765 16.797083,15.397326 0 0 0 -15.50391,-15.33789 v -6.9336 c 0,-2.77733 -2.23633,-5.01367 -5.01367,-5.01367 z m 79.4043,19.19727 c 0.83677,0 1.67021,0.10247 2.5,0.30468 0.83677,0.20222 1.76514,0.55738 2.7832,1.06641 v 2.45703 h -0.1582 c -0.85769,-0.71822 -1.70899,-1.24062 -2.55273,-1.56836 -0.84375,-0.32773 -1.74671,-0.49219 -2.70899,-0.49219 -0.78796,0 -1.49826,0.12872 -2.13281,0.38672 -0.62758,0.25103 -1.18851,0.64667 -1.6836,1.1836 -0.48114,0.52298 -0.85891,1.18442 -1.13086,1.98633 -0.26497,0.79492 -0.39648,1.71576 -0.39648,2.76171 0,1.09477 0.14659,2.03627 0.43945,2.82422 0.29985,0.78796 0.6832,1.42874 1.15039,1.92383 0.48812,0.51601 1.05659,0.89936 1.70508,1.15039 0.65547,0.24406 1.34512,0.36719 2.07032,0.36719 0.99714,0 1.9311,-0.17199 2.80273,-0.51367 0.87163,-0.34168 1.68915,-0.85375 2.44922,-1.53711 h 0.14648 v 2.42773 c -0.38352,0.16736 -0.73308,0.32232 -1.04687,0.46875 -0.30682,0.14644 -0.71083,0.30056 -1.21289,0.46094 -0.42536,0.13249 -0.88857,0.24333 -1.39063,0.33398 -0.49509,0.0976 -1.04289,0.14649 -1.64258,0.14649 -1.12963,0 -2.15852,-0.15692 -3.08593,-0.4707 -0.92045,-0.32077 -1.72289,-0.81776 -2.40625,-1.49414 -0.66942,-0.66245 -1.19182,-1.50342 -1.56836,-2.52149 -0.37655,-1.02504 -0.56446,-2.21363 -0.56446,-3.56641 0,-1.28304 0.18037,-2.43031 0.54297,-3.4414 0.3626,-1.0111 0.885,-1.8652 1.56836,-2.5625 0.66244,-0.67639 1.4621,-1.1932 2.39649,-1.54883 0.94136,-0.35563 1.98337,-0.5332 3.12695,-0.5332 z"
   style="fill:#07a0c3;fill-opacity:1;stroke:none;stroke-width:1.27438235;stroke-miterlimit:4;stroke-dasharray:none;stroke-opacity:1"
   inkscape:connector-curvature="0" /><path
   style="fill:#07a0c3;fill-opacity:1;stroke:none;stroke-width:1.27438235;stroke-miterlimit:4;stroke-dasharray:none;stroke-opacity:1"
   d="m 385.07198,349.5824 c -2.7773,0 -5.0137,2.23634 -5.0137,5.01367 v 68.7168 c 0,2.77732 2.2364,5.01367 5.0137,5.01367 h 72.73437 c 2.7773,0 5.0136,-2.23634 5.0136,-5.01367 v -31.09766 a 16.797083,15.397326 0 0 0 15.5039,-15.34765 16.797083,15.397326 0 0 0 -15.5039,-15.33789 v -6.9336 c 0,-2.77733 -2.2363,-5.01367 -5.0136,-5.01367 z"
   id="path6238"
   inkscape:connector-curvature="0" /><path
   inkscape:connector-curvature="0"
   id="path6246"
   d="m 368.87128,435.10123 c 2.7774,0 5.0137,2.23634 5.0137,5.01367 v 68.7168 c 0,2.77732 -2.2363,5.01367 -5.0137,5.01367 h -72.7343 c -2.7774,0 -5.0137,-2.23634 -5.0137,-5.01367 v -31.09766 a 16.797083,15.397326 0 0 1 -15.5039,-15.34765 16.797083,15.397326 0 0 1 15.5039,-15.33789 v -6.9336 c 0,-2.77733 2.2363,-5.01367 5.0137,-5.01367 z"
   style="fill:#07a0c3;fill-opacity:1;stroke:none;stroke-width:1.27438235;stroke-miterlimit:4;stroke-dasharray:none;stroke-opacity:1" /><g
   id="g6327"
   transform="translate(-584.16525,382.60024)"><g
     id="g6262"
     transform="translate(-146.84082,-479.18348)"
     style="fill:#07a0c3;fill-opacity:1"><path
       inkscape:connector-curvature="0"
       id="path6256"
       d="m 785.23155,434.36269 c -2.77733,0 -5.01172,2.23634 -5.01172,5.01367 v 5.14258 a 17.730255,17.730255 0 0 1 1.98828,-0.13282 17.730255,17.730255 0 0 1 17.73047,17.73047 17.730255,17.730255 0 0 1 -17.73047,17.73047 17.730255,17.730255 0 0 1 -1.98828,-0.12109 v 28.36719 c 0,2.77733 2.23439,5.01367 5.01172,5.01367 h 72.73437 c 2.77734,0 5.01368,-2.23634 5.01368,-5.01367 v -68.7168 c 0,-2.77733 -2.23634,-5.01367 -5.01368,-5.01367 z"
       style="fill:#07a0c3;fill-opacity:1;stroke:none;stroke-width:1.27438235;stroke-miterlimit:4;stroke-dasharray:none;stroke-opacity:1" /><text
       xml:space="preserve"
       style="font-style:normal;font-weight:normal;font-size:21.42124176px;line-height:1.25;font-family:sans-serif;letter-spacing:0px;word-spacing:0px;fill:#07a0c3;fill-opacity:1;stroke:none;stroke-width:0.53553104"
       x="779.78046"
       y="469.4892"
       id="text6260"><tspan
         sodipodi:role="line"
         id="tspan6258"
         x="779.78046"
         y="469.4892"
         style="fill:#07a0c3;fill-opacity:1;stroke-width:0.53553104">S</tspan></text>
</g></g><g
   id="g6332"
   transform="translate(-584.16525,382.60024)"><path
     inkscape:connector-curvature="0"
     id="path6270"
     d="m 722.46894,49.42951 c 2.77733,0 5.01172,2.23634 5.01172,5.01367 v 5.14258 a 17.730255,17.730255 0 0 0 -1.98828,-0.13282 17.730255,17.730255 0 0 0 -17.73047,17.73047 17.730255,17.730255 0 0 0 17.73047,17.73047 17.730255,17.730255 0 0 0 1.98828,-0.12109 v 28.36719 c 0,2.77733 -2.23439,5.01367 -5.01172,5.01367 h -72.73437 c -2.77734,0 -5.01368,-2.23634 -5.01368,-5.01367 v -68.7168 c 0,-2.77733 2.23634,-5.01367 5.01368,-5.01367 z"
     style="fill:#07a0c3;fill-opacity:1;stroke:none;stroke-width:1.27438235;stroke-miterlimit:4;stroke-dasharray:none;stroke-opacity:1" /><text
     xml:space="preserve"
     style="font-style:normal;font-weight:normal;font-size:21.42124176px;line-height:1.25;font-family:sans-serif;letter-spacing:0px;word-spacing:0px;fill:#07a0c3;fill-opacity:1;stroke:none;stroke-width:0.53553104"
     x="713.10925"
     y="84.556015"
     id="text6274"><tspan
       sodipodi:role="line"
       id="tspan6272"
       x="713.10925"
       y="84.556015"
       style="fill:#07a0c3;fill-opacity:1;stroke-width:0.53553104">S</tspan></text>
</g><path
   style="fill:#07a0c3;fill-opacity:1;stroke:none;stroke-width:1.27438235;stroke-miterlimit:4;stroke-dasharray:none;stroke-opacity:1"
   d="m 387.83428,436.22903 c -2.7774,0 -5.0118,2.23634 -5.0118,5.01367 v 5.14258 a 17.730255,17.730255 0 0 1 1.9883,-0.13282 17.730255,17.730255 0 0 1 17.7305,17.73047 17.730255,17.730255 0 0 1 -17.7305,17.73047 17.730255,17.730255 0 0 1 -1.9883,-0.12109 v 28.36719 c 0,2.77733 2.2344,5.01367 5.0118,5.01367 h 72.73427 c 2.7774,0 5.0137,-2.23634 5.0137,-5.01367 v -68.7168 c 0,-2.77733 -2.2363,-5.01367 -5.0137,-5.01367 z"
   id="path6282"
   inkscape:connector-curvature="0" /><path
   inkscape:connector-curvature="0"
   id="path6290"
   d="m 361.33168,347.11117 c 2.7773,0 5.0117,2.23634 5.0117,5.01367 v 5.14258 a 17.730255,17.730255 0 0 0 -1.9883,-0.13282 17.730255,17.730255 0 0 0 -17.7305,17.73047 17.730255,17.730255 0 0 0 17.7305,17.73047 17.730255,17.730255 0 0 0 1.9883,-0.12109 v 28.36719 c 0,2.77733 -2.2344,5.01367 -5.0117,5.01367 h -72.7344 c -2.7773,0 -5.0137,-2.23634 -5.0137,-5.01367 v -68.7168 c 0,-2.77733 2.2364,-5.01367 5.0137,-5.01367 z"
   style="fill:#07a0c3;fill-opacity:1;stroke:none;stroke-width:1.27438235;stroke-miterlimit:4;stroke-dasharray:none;stroke-opacity:1" /><text
   xml:space="preserve"
   style="font-style:normal;font-weight:normal;font-size:17.94844437px;line-height:1.25;font-family:sans-serif;letter-spacing:0px;word-spacing:0px;fill:#000000;fill-opacity:1;stroke:none;stroke-width:0.4487111"
   x="156.89841"
   y="282.52121"
   id="text6392"><tspan
     sodipodi:role="line"
     id="tspan6390"
     x="156.89841"
     y="282.52121"
     style="stroke-width:0.4487111">process</tspan></text>
<text
   id="text6396"
   y="280.65488"
   x="275.41116"
   style="font-style:normal;font-weight:normal;font-size:17.94844437px;line-height:1.25;font-family:sans-serif;letter-spacing:0px;word-spacing:0px;fill:#000000;fill-opacity:1;stroke:none;stroke-width:0.4487111"
   xml:space="preserve"><tspan
     style="stroke-width:0.4487111"
     y="280.65488"
     x="275.41116"
     id="tspan6394"
     sodipodi:role="line">file</tspan></text>
<text
   xml:space="preserve"
   style="font-style:normal;font-weight:normal;font-size:17.94844437px;line-height:1.25;font-family:sans-serif;letter-spacing:0px;word-spacing:0px;fill:#000000;fill-opacity:1;stroke:none;stroke-width:0.4487111"
   x="381.79269"
   y="281.58804"
   id="text6400"><tspan
     sodipodi:role="line"
     id="tspan6398"
     x="381.79269"
     y="281.58804"
     style="stroke-width:0.4487111">database</tspan></text>
<text
   id="text6404"
   y="278.78854"
   x="490.97372"
   style="font-style:normal;font-weight:normal;font-size:17.94844437px;line-height:1.25;font-family:sans-serif;letter-spacing:0px;word-spacing:0px;fill:#000000;fill-opacity:1;stroke:none;stroke-width:0.4487111"
   xml:space="preserve"><tspan
     style="stroke-width:0.4487111"
     y="278.78854"
     x="490.97372"
     id="tspan6402"
     sodipodi:role="line">queue</tspan></text>
<text
   xml:space="preserve"
   style="font-style:normal;font-weight:normal;font-size:17.94844437px;line-height:1.25;font-family:sans-serif;letter-spacing:0px;word-spacing:0px;fill:#000000;fill-opacity:1;stroke:none;stroke-width:0.4487111"
   x="634.83752"
   y="307.47238"
   id="text6408"><tspan
     sodipodi:role="line"
     id="tspan6406"
     x="634.83752"
     y="307.47238"
     style="stroke-width:0.4487111">direct</tspan></text>
<text
   id="text6412"
   y="307.47238"
   x="772.01373"
   style="font-style:normal;font-weight:normal;font-size:17.94844437px;line-height:1.25;font-family:sans-serif;letter-spacing:0px;word-spacing:0px;fill:#000000;fill-opacity:1;stroke:none;stroke-width:0.4487111"
   xml:space="preserve"><tspan
     style="stroke-width:0.4487111"
     y="307.47238"
     x="772.01373"
     id="tspan6410"
     sodipodi:role="line">topic</tspan></text>
<text
   xml:space="preserve"
   style="font-style:normal;font-weight:normal;font-size:17.94844437px;line-height:1.25;font-family:sans-serif;letter-spacing:0px;word-spacing:0px;fill:#000000;fill-opacity:1;stroke:none;stroke-width:0.4487111"
   x="908.25677"
   y="302.80652"
   id="text6416"><tspan
     sodipodi:role="line"
     id="tspan6414"
     x="908.25677"
     y="302.80652"
     style="stroke-width:0.4487111">exchange</tspan></text>
<g
   id="g6465"
   style="fill:#f09308;fill-opacity:1;stroke:none;stroke-opacity:1"
   transform="translate(89.739841,-172.88116)"><path
     id="circle6334"
     d="m 564.56799,339.67383 a 43.859051,43.859051 0 0 0 -43.85742,43.85937 43.859051,43.859051 0 0 0 19.04492,36.16211 v -5.79101 c 0,-1.18102 0.9518,-2.13086 2.13281,-2.13086 h 56.23828 a 43.859051,43.859051 0 0 0 10.30078,-28.24024 43.859051,43.859051 0 0 0 -43.85937,-43.85937 z m -13.06055,19.6289 h 9.93164 c 3.88046,0 6.95985,0.27504 9.23828,0.82227 2.29624,0.53013 4.23609,1.26452 5.82032,2.20508 2.70564,1.6246 4.8151,3.78827 6.32812,6.49023 1.51302,2.70197 2.26953,5.90821 2.26953,9.61914 0,3.47152 -0.79077,6.61778 -2.375,9.43946 -1.56642,2.82167 -3.65875,5.01021 -6.27539,6.5664 -1.81563,1.07737 -3.84505,1.85711 -6.08789,2.33594 -2.22503,0.47883 -5.16149,0.7168 -8.81055,0.7168 h -10.03906 z m 5.28516,4.36133 v 29.47461 h 4.96679 c 2.54544,0 4.76161,-0.17994 6.64844,-0.53906 1.90463,-0.35912 3.65015,-1.02719 5.23438,-2.00195 1.97583,-1.21418 3.45262,-2.81316 4.43164,-4.79688 0.99681,-1.98372 1.49414,-4.46191 1.49414,-7.4375 0,-2.99268 -0.54114,-5.51623 -1.62695,-7.56836 -1.08582,-2.05213 -2.70555,-3.66768 -4.85938,-4.84765 -1.56642,-0.85506 -3.23191,-1.44462 -4.99414,-1.76954 -1.76223,-0.34202 -3.87169,-0.51367 -6.32813,-0.51367 z"
     style="opacity:1;fill:#f09308;fill-opacity:1;stroke:none;stroke-width:2;stroke-miterlimit:4;stroke-dasharray:none;stroke-opacity:1"
     inkscape:connector-curvature="0" /><path
     id="rect6346"
     d="m 546.53125,415.03906 c -1.42787,0 -2.57617,1.14831 -2.57617,2.57617 v 35.32813 c 0,1.42787 1.1483,2.57812 2.57617,2.57812 h 83.20508 c 1.42787,0 2.57812,-1.15025 2.57812,-2.57812 v -35.32813 c 0,-1.42786 -1.15025,-2.57617 -2.57812,-2.57617 z m 3.11328,3.03321 h 76.97852 c 1.21392,0 2.1914,0.97747 2.1914,2.1914 v 30.03321 c 0,1.21392 -0.97748,2.1914 -2.1914,2.1914 h -76.97852 c -1.21393,0 -2.18945,-0.97748 -2.18945,-2.1914 v -30.03321 c 0,-1.21393 0.97552,-2.1914 2.18945,-2.1914 z"
     style="fill:#f09308;fill-opacity:1;stroke:none;stroke-width:0.94415826;stroke-miterlimit:4;stroke-dasharray:none;stroke-opacity:1"
     inkscape:connector-curvature="0" /><text
     xml:space="preserve"
     style="font-style:normal;font-weight:normal;font-size:17.94844437px;line-height:1.25;font-family:sans-serif;letter-spacing:0px;word-spacing:0px;fill:#f09308;fill-opacity:1;stroke:none;stroke-width:0.4487111;stroke-opacity:1"
     x="560.29572"
     y="441.0267"
     id="text6420"><tspan
       sodipodi:role="line"
       id="tspan6418"
       x="560.29572"
       y="441.0267"
       style="fill:#f09308;fill-opacity:1;stroke:none;stroke-width:0.4487111;stroke-opacity:1">Name</tspan></text>
</g><g
   id="g6517"
   style="fill:#f09308;fill-opacity:1"
   transform="translate(89.739841,-172.88116)"><path
     id="path6351"
     d="m 695.21267,336.40769 a 43.859051,43.859051 0 0 0 -43.85742,43.85937 43.859051,43.859051 0 0 0 19.04492,36.16211 v -5.79101 c 0,-1.18102 0.95181,-2.13086 2.13282,-2.13086 h 56.23829 a 43.859051,43.859051 0 0 0 10.30078,-28.24024 43.859051,43.859051 0 0 0 -43.85939,-43.85937 z m -1.63475,28.17578 h 3.44336 l -0.18556,9.20898 9.69142,-5.4375 1.70897,2.82032 -10.14647,5.25976 10.14647,5.3086 -1.70897,2.82226 -9.66603,-5.46289 0.16017,9.23438 h -3.44336 l 0.1328,-9.23438 -9.63867,5.48828 -1.73633,-2.82031 10.17383,-5.31055 -10.17383,-5.31054 1.73633,-2.82032 9.66601,5.46289 z"
     style="opacity:1;fill:#f09308;fill-opacity:1;stroke:none;stroke-width:2;stroke-miterlimit:4;stroke-dasharray:none;stroke-opacity:1"
     inkscape:connector-curvature="0" /><path
     inkscape:connector-curvature="0"
     id="path6488"
     d="m 676.52205,411.07995 c -1.42787,0 -2.57617,1.14831 -2.57617,2.57617 v 35.32813 c 0,1.42787 1.1483,2.57812 2.57617,2.57812 h 83.20508 c 1.42787,0 2.57812,-1.15025 2.57812,-2.57812 v -35.32813 c 0,-1.42786 -1.15025,-2.57617 -2.57812,-2.57617 z m 3.11328,3.03321 h 76.97852 c 1.21392,0 2.1914,0.97747 2.1914,2.1914 v 30.03321 c 0,1.21392 -0.97748,2.1914 -2.1914,2.1914 h -76.97852 c -1.21393,0 -2.18945,-0.97748 -2.18945,-2.1914 v -30.03321 c 0,-1.21393 0.97552,-2.1914 2.18945,-2.1914 z"
     style="fill:#f09308;fill-opacity:1;stroke:none;stroke-width:0.94415826;stroke-miterlimit:4;stroke-dasharray:none;stroke-opacity:1" /><text
     xml:space="preserve"
     style="font-style:normal;font-weight:normal;font-size:17.94844437px;line-height:1.25;font-family:sans-serif;letter-spacing:0px;word-spacing:0px;fill:#f09308;fill-opacity:1;stroke:none;stroke-width:0.4487111;stroke-opacity:1"
     x="690.2865"
     y="437.0676"
     id="text6492"><tspan
       sodipodi:role="line"
       id="tspan6490"
       x="690.2865"
       y="437.0676"
       style="fill:#f09308;fill-opacity:1;stroke:none;stroke-width:0.4487111;stroke-opacity:1">Name</tspan></text>
</g><g
   id="g6511"
   style="fill:#f09308;fill-opacity:1"
   transform="translate(89.739841,-172.88116)"><path
     id="path6369"
     d="m 827.25571,334.54139 a 43.859051,43.859051 0 0 0 -43.85742,43.85937 43.859051,43.859051 0 0 0 19.04492,36.16211 v -5.79101 c 0,-1.18102 0.9518,-2.13086 2.13281,-2.13086 h 56.23828 a 43.859051,43.859051 0 0 0 10.30078,-28.24024 43.859051,43.859051 0 0 0 -43.85937,-43.85937 z"
     style="opacity:1;fill:#f09308;fill-opacity:1;stroke:none;stroke-width:2;stroke-miterlimit:4;stroke-dasharray:none;stroke-opacity:1"
     inkscape:connector-curvature="0" /><path
     inkscape:connector-curvature="0"
     id="path6501"
     d="m 808.45151,409.71935 c -1.42787,0 -2.57617,1.14831 -2.57617,2.57617 v 35.32813 c 0,1.42787 1.1483,2.57812 2.57617,2.57812 h 83.20508 c 1.42787,0 2.57812,-1.15025 2.57812,-2.57812 v -35.32813 c 0,-1.42786 -1.15025,-2.57617 -2.57812,-2.57617 z m 3.11328,3.03321 h 76.97852 c 1.21392,0 2.1914,0.97747 2.1914,2.1914 v 30.03321 c 0,1.21392 -0.97748,2.1914 -2.1914,2.1914 h -76.97852 c -1.21393,0 -2.18945,-0.97748 -2.18945,-2.1914 v -30.03321 c 0,-1.21393 0.97552,-2.1914 2.18945,-2.1914 z"
     style="fill:#f09308;fill-opacity:1;stroke:none;stroke-width:0.94415826;stroke-miterlimit:4;stroke-dasharray:none;stroke-opacity:1" /><text
     xml:space="preserve"
     style="font-style:normal;font-weight:normal;font-size:17.94844437px;line-height:1.25;font-family:sans-serif;letter-spacing:0px;word-spacing:0px;fill:#f09308;fill-opacity:1;stroke:none;stroke-width:0.4487111;stroke-opacity:1"
     x="822.21594"
     y="435.70697"
     id="text6505"><tspan
       sodipodi:role="line"
       id="tspan6503"
       x="822.21594"
       y="435.70697"
       style="fill:#f09308;fill-opacity:1;stroke:none;stroke-width:0.4487111;stroke-opacity:1">Name</tspan></text>
</g><text
   id="text6523"
   y="260.22729"
   x="508.82727"
   style="font-style:normal;font-weight:normal;font-size:17.94844437px;line-height:1.25;font-family:sans-serif;letter-spacing:0px;word-spacing:0px;fill:#f09308;fill-opacity:1;stroke:none;stroke-width:0.4487111;stroke-opacity:1;"
   xml:space="preserve"><tspan
     style="fill:#f09308;fill-opacity:1;stroke:none;stroke-width:0.4487111;stroke-opacity:1;"
     y="260.22729"
     x="508.82727"
     id="tspan6521"
     sodipodi:role="line">Name</tspan></text>
<path
   style="opacity:1;fill:#dd1c1a;fill-opacity:1;stroke:none;stroke-width:0.8085106;stroke-miterlimit:4;stroke-dasharray:none;stroke-opacity:1"
   d="m 626.85798,319.91156 a 17.730255,17.730255 0 0 0 -17.73047,17.73046 17.730255,17.730255 0 0 0 0.83789,5.31641 17.730255,17.730255 0 0 0 -12.96875,17.08008 17.730255,17.730255 0 0 0 16.22266,17.6543 17.730255,17.730255 0 0 0 -1.29102,6.60742 17.730255,17.730255 0 0 0 17.73047,17.73047 17.730255,17.730255 0 0 0 10.62891,-3.5625 17.730255,17.730255 0 0 0 15.5,9.16015 17.730255,17.730255 0 0 0 15.12304,-8.51758 17.730255,17.730255 0 0 0 11.00391,3.85352 17.730255,17.730255 0 0 0 17.73047,-17.73047 17.730255,17.730255 0 0 0 -1.25586,-6.53906 17.730255,17.730255 0 0 0 6.85547,-13.99219 17.730255,17.730255 0 0 0 -12.85938,-17.03125 17.730255,17.730255 0 0 0 1.12891,-6.16601 17.730255,17.730255 0 0 0 -17.73047,-17.73047 17.730255,17.730255 0 0 0 -16.19922,10.55468 17.730255,17.730255 0 0 0 -14.0625,-6.95312 17.730255,17.730255 0 0 0 -3.90625,0.45898 17.730255,17.730255 0 0 0 -14.75781,-7.92382 z m 0.26758,2.80468 c 5.53363,0.004 10.69721,2.94256 13.75781,7.55274 1.1943,-0.27725 3.57083,-0.58675 4.79688,-0.59375 5.14034,0.005 11.47089,3.39046 13.93554,8.62695 2.64558,-5.97775 8.56454,-12.14344 15.10156,-12.14844 9.12934,-1.1e-4 16.69542,6.90581 16.69532,16.03516 -0.007,1.96349 -1.02148,4.56973 -1.71094,6.4082 7.09071,2.02592 13.79573,9.32869 13.80273,16.70313 -0.003,5.10159 -4.17773,10.07993 -8.20703,13.20898 0.77177,1.93993 2.49019,4.33796 2.49219,6.42578 1.1e-4,9.12935 -7.73198,15.87121 -16.86133,15.8711 -3.72685,-0.007 -7.83705,-2.09818 -10.7539,-4.41797 -2.99427,4.92363 -8.9952,9.5838 -14.75782,9.5918 -6.01138,-0.007 -12.20566,-5.25704 -15.11132,-10.51954 -2.85697,2.14965 -6.00276,4.96471 -9.57813,4.97071 -9.12935,1.1e-4 -17.0255,-7.4019 -17.02539,-16.53125 0.004,-2.11138 0.57625,-5.35681 1.36719,-7.31446 -8.54908,-0.72957 -15.77721,-7.87883 -15.78321,-16.45898 -4.8e-4,-7.41996 6.42879,-14.26126 13.57618,-16.25391 -0.51109,-1.60278 -1.43441,-4.09897 -1.44141,-5.78125 -10e-5,-9.12935 6.57573,-15.37511 15.70508,-15.375 z"
   id="circle6527"
   inkscape:connector-curvature="0" /><g
   id="g6590"><circle
     r="17.730255"
     cy="343.71698"
     cx="755.80658"
     id="circle6553"
     style="opacity:1;fill:#f0c808;fill-opacity:1;stroke:none;stroke-width:0.8085106;stroke-miterlimit:4;stroke-dasharray:none;stroke-opacity:1" /><circle
     style="opacity:1;fill:#f0c808;fill-opacity:1;stroke:none;stroke-width:0.8085106;stroke-miterlimit:4;stroke-dasharray:none;stroke-opacity:1"
     id="circle6555"
     cx="743.67535"
     cy="366.1131"
     r="17.730255" /><circle
     style="opacity:1;fill:#f0c808;fill-opacity:1;stroke:none;stroke-width:0.8085106;stroke-miterlimit:4;stroke-dasharray:none;stroke-opacity:1"
     id="circle6557"
     cx="774.47003"
     cy="351.18237"
     r="17.730255" /><circle
     r="17.730255"
     cy="347.58093"
     cx="804.73248"
     id="circle6559"
     style="opacity:1;fill:#f0c808;fill-opacity:1;stroke:none;stroke-width:0.8085106;stroke-miterlimit:4;stroke-dasharray:none;stroke-opacity:1" /><circle
     style="opacity:1;fill:#f0c808;fill-opacity:1;stroke:none;stroke-width:0.8085106;stroke-miterlimit:4;stroke-dasharray:none;stroke-opacity:1"
     id="circle6561"
     cx="797.79932"
     cy="378.24432"
     r="17.730255" /><circle
     r="17.730255"
     cy="390.37561"
     cx="758.60608"
     id="circle6563"
     style="opacity:1;fill:#f0c808;fill-opacity:1;stroke:none;stroke-width:0.8085106;stroke-miterlimit:4;stroke-dasharray:none;stroke-opacity:1" /><circle
     style="opacity:1;fill:#f0c808;fill-opacity:1;stroke:none;stroke-width:0.8085106;stroke-miterlimit:4;stroke-dasharray:none;stroke-opacity:1"
     id="circle6565"
     cx="784.73486"
     cy="395.97461"
     r="17.730255" /><circle
     r="17.730255"
     cy="369.84583"
     cx="772.60364"
     id="circle6567"
     style="opacity:1;fill:#f0c808;fill-opacity:1;stroke:none;stroke-width:0.8085106;stroke-miterlimit:4;stroke-dasharray:none;stroke-opacity:1" /><circle
     r="17.730255"
     cy="391.30872"
     cx="810.86371"
     id="circle6569"
     style="opacity:1;fill:#f0c808;fill-opacity:1;stroke:none;stroke-width:0.8085106;stroke-miterlimit:4;stroke-dasharray:none;stroke-opacity:1" /><circle
     style="opacity:1;fill:#f0c808;fill-opacity:1;stroke:none;stroke-width:0.8085106;stroke-miterlimit:4;stroke-dasharray:none;stroke-opacity:1"
     id="circle6571"
     cx="816.46271"
     cy="370.77893"
     r="17.730255" /><circle
     style="opacity:1;fill:#f0c808;fill-opacity:1;stroke:none;stroke-width:0.8085106;stroke-miterlimit:4;stroke-dasharray:none;stroke-opacity:1"
     id="circle6573"
     cx="794.46759"
     cy="357.84583"
     r="17.730255" /></g></svg>